<?xml version="1.0" encoding="iso-8859-1"?>
<!-- Generator: Adobe Illustrator 19.0.0, SVG Export Plug-In . SVG Version: 6.00 Build 0)  -->
<svg version="1.1" id="Capa_1" xmlns="http://www.w3.org/2000/svg" xmlns:xlink="http://www.w3.org/1999/xlink" x="0px" y="0px"
	 viewBox="0 0 58.035 58.035" style="enable-background:new 0 0 58.035 58.035;" xml:space="preserve">
<g>
	<g>
		<path d="M35,36.518c0,2.206-1.794,4-4,4h-1v2h1c3.309,0,6-2.691,6-6v-1h-2V36.518z"/>
		<path d="M53,45.518v-16.5c0-10.201-8.302-18.5-18.506-18.5H23.506C13.302,10.518,5,18.816,5,29.018v16.5H0v2h6h46h6.035v-2H53z
			 M7,45.518v-16.5c0-9.098,7.404-16.5,16.506-16.5h10.988c9.101,0,16.506,7.402,16.506,16.5v16.5H7z"/>
		<path d="M44,21.518H31c-0.553,0-1,0.448-1,1h-2c0-0.552-0.447-1-1-1H14c-0.553,0-1,0.448-1,1v5c0,3.309,2.695,6,6.008,6h2.984
			c3.313,0,6.008-2.691,6.008-6v-3h2v3c0,3.309,2.695,6,6.008,6h2.984c3.312,0,6.008-2.691,6.008-6v-5
			C45,21.965,44.553,21.518,44,21.518z M26,27.518c0,2.206-1.798,4-4.008,4h-2.984c-2.21,0-4.008-1.794-4.008-4v-4h11v1V27.518z
			 M43,27.518c0,2.206-1.798,4-4.008,4h-2.984c-2.21,0-4.008-1.794-4.008-4v-4h11V27.518z"/>
	</g>
</g>
<g>
</g>
<g>
</g>
<g>
</g>
<g>
</g>
<g>
</g>
<g>
</g>
<g>
</g>
<g>
</g>
<g>
</g>
<g>
</g>
<g>
</g>
<g>
</g>
<g>
</g>
<g>
</g>
<g>
</g>
</svg>
